#!OML:ASF F:\VICON\USERDATA\INSTALL\rory3\rory3.ASF
:FULLY-SPECIFIED
:DEGREES
893
root 5.78807 18.6444 -9.5392 72.9462 -33.5063 -37.2785
lowerback -21.3556 6.44767 5.32244
upperback -16.6054 7.05804 2.71797
thorax -6.27889 3.04356 1.11512
lowerneck -18.5276 5.02812 1.58308
upperneck 26.8222 4.82598 5.81036
head 11.7506 3.03522 2.62505
rclavicle 8.74653e-015 -7.79236e-014
rhumerus 61.558 -66.5899 -50.8789
rradius 12.679
rwrist 58.0074
rhand 12.3448 -2.68902
rfingers 7.12502
rthumb 37.3468 -28.663
lclavicle 8.74653e-015 -7.79236e-014
lhumerus -22.1385 20.1827 -0.193817
lradius 17.5511
lwrist -51.5836
lhand -0.19397 30.8059
lfingers 7.12502
lthumb 25.4046 59.1332
rfemur 10.6405 -3.60064 10.9664
rtibia 40.9151
rfoot 35.8357 -42.1804
rtoes 35.6962
lfemur -53.895 -2.32161 18.583
ltibia 33.0317
lfoot -41.3894 -0.270878
ltoes 53.4317
894
root 5.79539 18.6342 -9.51506 72.1665 -33.8505 -36.5464
lowerback -21.5933 6.58517 5.24364
upperback -16.3574 7.2311 2.54726
thorax -5.84905 3.1466 1.03627
lowerneck -18.5074 4.42483 1.07724
upperneck 28.6925 4.03243 5.84403
head 12.4914 2.6258 2.67666
rclavicle 2.66371e-014 -6.99722e-014
rhumerus 56.91 -64.9451 -45.9244
rradius 12.6621
rwrist 56.0798
rhand 12.7422 -2.92034
rfingers 7.12502
rthumb 37.7223 -28.7946
lclavicle 2.66371e-014 -6.99722e-014
lhumerus -21.7334 22.2402 1.32404
lradius 16.81
lwrist -53.9374
lhand -1.00099 30.3146
lfingers 7.12502
lthumb 24.6313 58.7496
rfemur 9.47793 -4.03079 11.7451
rtibia 40.4774
rfoot 32.4606 -44.6071
rtoes 38.9643
lfemur -54.1482 -2.72332 18.0225
ltibia 33.4029
lfoot -38.5797 -7.98609
ltoes 56.6407
895
root 5.80758 18.6222 -9.4959 71.0726 -34.3636 -35.7059
lowerback -21.4857 6.53304 4.93037
upperback -16.0666 7.22943 2.42224
thorax -5.5705 3.18117 1.07382
lowerneck -18.2808 4.06337 0.983605
upperneck 30.3522 3.53712 5.62417
head 13.1441 2.35499 2.59027
rclavicle -2.38542e-015 -3.65764e-014
rhumerus 53.8831 -63.0743 -42.8038
rradius 12.6605
rwrist 54.4452
rhand 13.0683 -3.23264
rfingers 7.12502
rthumb 38.0303 -29.0236
lclavicle -2.38542e-015 -3.65764e-014
lhumerus -21.6922 23.9068 2.69798
lradius 16.1833
lwrist -55.8109
lhand -1.6325 29.7703
lfingers 7.12502
lthumb 24.0258 58.2865
rfemur 8.57036 -4.28561 12.2971
rtibia 40.0159
rfoot 26.4875 -47.8744
rtoes 43.2848
lfemur -54.1302 -2.71129 16.727
ltibia 33.8307
lfoot -37.172 0.149443
ltoes 54.1349
896
root 5.82182 18.6063 -9.48221 69.8287 -34.6916 -34.8487
lowerback -21.139 6.40974 4.68752
upperback -15.772 7.14736 2.38492
thorax -5.41292 3.17044 1.13155
lowerneck -18.6108 3.45303 0.758679
upperneck 32.5421 2.62974 5.54444
head 14.1889 1.90828 2.54907
rclavicle 1.78906e-015 -3.02153e-014
rhumerus 50.608 -60.7087 -39.2108
rradius 12.5927
rwrist 52.2747
rhand 13.647 -3.24707
rfingers 7.12502
rthumb 38.5766 -28.8871
lclavicle 1.78906e-015 -3.02153e-014
lhumerus -21.7896 24.4871 4.34956
lradius 15.9447
lwrist -56.282
lhand -1.01682 30.0456
lfingers 7.12502
lthumb 24.6161 58.4827
rfemur 7.71339 -4.48816 13.0196
rtibia 39.7558
rfoot 23.9416 -47.8561
rtoes 43.3303
lfemur -53.9582 -2.93371 15.6848
ltibia 34.0107
lfoot -36.0658 1.51143
ltoes 53.8423
897
root 5.83687 18.5824 -9.46793 68.6877 -34.601 -34.0871
lowerback -20.9551 6.41055 4.98125
upperback -15.5144 7.12343 2.3845
thorax -5.17103 3.14385 0.963256
lowerneck -18.2183 2.96387 0.393482
upperneck 34.1499 1.97449 5.47406
head 14.8493 1.55122 2.52617
rclavicle 1.07741e-013 -3.97569e-014
rhumerus 46.1406 -57.4574 -34.1664
rradius 12.8651
rwrist 48.9176
rhand 14.5194 -4.05056
rfingers 7.12502
rthumb 39.3991 -29.4551
lclavicle 1.07741e-013 -3.97569e-014
lhumerus -21.7854 23.5401 6.58195
lradius 16.0971
lwrist -55.1241
lhand 0.141421 30.791
lfingers 7.12502
lthumb 25.7258 59.0722
rfemur 6.76307 -4.83716 14.1778
rtibia 39.5382
rfoot 21.9676 -47.4658
rtoes 43.0523
lfemur -53.9148 -2.5243 14.6436
ltibia 34.2311
lfoot -34.0971 3.28151
ltoes 53.2611
898
root 5.8529 18.5891 -9.47146 66.2962 -36.7708 -31.9882
lowerback -19.8061 5.94968 2.60338
upperback -15.2085 6.99277 1.81685
thorax -5.55263 3.26075 1.52946
lowerneck -17.4008 2.59101 0.00306248
upperneck 35.2109 1.48963 5.4911
head 15.1713 1.27431 2.53865
rclavicle 3.29983e-014 -1.43125e-014
rhumerus 44.1876 -55.0945 -31.9284
rradius 13.0988
rwrist 47.0304
rhand 15.4593 -5.16886
rfingers 7.12502
rthumb 40.2838 -30.3087
lclavicle 3.29983e-014 -1.43125e-014
lhumerus -21.8035 22.4642 8.85766
lradius 16.286
lwrist -53.6504
lhand 0.229131 31.2934
lfingers 7.12502
lthumb 25.8098 59.5625
rfemur 6.09074 -5.41311 12.5093
rtibia 39.5006
rfoot 20.1359 -46.8211
rtoes 42.9544
lfemur -53.3416 -3.0325 10.9542
ltibia 34.494
lfoot -32.4626 4.33241
ltoes 52.8092
899
root 5.87524 18.564 -9.46781 64.6539 -36.9173 -30.799
lowerback -19.0506 5.76276 2.44953
upperback -14.9075 6.82802 1.68523
thorax -5.57641 3.19027 1.3939
lowerneck -16.5812 2.35894 0.0368487
upperneck 36.0529 1.16347 5.25695
head 15.4011 1.0873 2.38978
rclavicle -1.36963e-013 -9.54166e-015
rhumerus 44.7894 -54.1236 -32.6945
rradius 13.2803
rwrist 47.3266
rhand 16.648 -4.49155
rfingers 7.12502
rthumb 41.4006 -29.2793
lclavicle -1.36963e-013 -9.54166e-015
lhumerus -21.7573 22.5113 10.8005
lradius 16.115
lwrist -53.3601
lhand -0.18537 31.4377
lfingers 7.12502
lthumb 25.4128 59.7638
rfemur 5.24005 -6.04355 13.2541
rtibia 39.3908
rfoot 19.0942 -45.7264
rtoes 41.6453
lfemur -53.243 -1.13332 8.1377
ltibia 35.0652
lfoot -28.4627 6.50143
ltoes 52.4708
900
root 5.90013 18.5145 -9.45981 63.6976 -35.7778 -30.3615
lowerback -18.7583 5.88496 3.71537
upperback -14.6638 6.84347 1.74393
thorax -5.31447 3.10471 0.757257
lowerneck -15.7905 1.94775 0.128617
upperneck 36.8663 0.512597 5.10834
head 15.6435 0.786108 2.21028
rclavicle -5.68524e-014 -1.59028e-014
rhumerus 43.0111 -52.1701 -30.5318
rradius 13.459
rwrist 45.8852
rhand 17.6984 -3.07706
rfingers 7.12502
rthumb 42.3853 -27.5367
lclavicle -5.68524e-014 -1.59028e-014
lhumerus -21.4 23.7385 12.7085
lradius 15.8296
lwrist -54.5589
lhand -0.365291 30.9414
lfingers 7.12502
lthumb 25.2404 59.2919
rfemur 4.06394 -6.92339 15.454
rtibia 39.4403
rfoot 19.1448 -43.8759
rtoes 38.8548
lfemur -53.563 2.08627 6.10232
ltibia 35.7125
lfoot -21.3016 12.2344
ltoes 47.7645
901
root 5.92357 18.4646 -9.45403 62.6664 -35.3909 -29.4875
lowerback -18.5936 6.03177 4.08429
upperback -14.4524 7.00833 1.47174
thorax -5.07618 3.15822 0.28924
lowerneck -15.4345 1.26408 0.102997
upperneck 37.9207 -0.636572 5.20917
head 16.1437 0.301888 2.08998
rclavicle -1.05356e-013 -9.54166e-015
rhumerus 39.2538 -48.9685 -25.8385
rradius 13.8263
rwrist 42.1424
rhand 18.9351 -3.1255
rfingers 7.12502
rthumb 43.5418 -27.1772
lclavicle -1.05356e-013 -9.54166e-015
lhumerus -20.7015 24.5279 15.0439
lradius 15.6942
lwrist -55.4103
lhand -0.846543 30.1826
lfingers 7.12502
lthumb 24.7793 58.5973
rfemur 2.71002 -7.68908 16.7403
rtibia 39.3677
rfoot 16.4849 -42.9614
rtoes 38.3889
lfemur -54.265 3.93939 3.99938
ltibia 36.7332
lfoot -15.5739 15.317
ltoes 40.86
902
root 5.93855 18.4304 -9.42146 61.8552 -36.2743 -28.261
lowerback -18.9236 6.12928 3.32359
upperback -14.2422 7.22023 0.954362
thorax -4.67534 3.31432 0.230209
lowerneck -15.1591 0.720729 0.178556
upperneck 38.8671 -1.55934 5.1693
head 16.6161 -0.0854517 1.9236
rclavicle 1.47101e-014 4.6118e-014
rhumerus 36.9697 -45.9805 -22.7282
rradius 14.3324
rwrist 38.6169
rhand 20.0809 -3.81639
rfingers 7.12502
rthumb 44.6104 -27.4678
lclavicle 1.47101e-014 4.6118e-014
lhumerus -20.2829 25.2149 17.2877
lradius 15.5565
lwrist -55.9682
lhand -1.5853 29.9382
lfingers 7.12502
lthumb 24.0711 58.4484
rfemur 0.447175 -7.71934 16.9806
rtibia 39.6883
rfoot 14.7624 -41.5299
rtoes 36.6218
lfemur -54.9468 5.06883 1.09208
ltibia 37.5032
lfoot -10.7464 17.3157
ltoes 29.6632
903
root 5.9678 18.3791 -9.43525 60.2146 -35.5703 -27.36
lowerback -17.9111 5.58422 4.16148
upperback -13.9493 6.46179 1.47881
thorax -4.84908 2.88627 0.139245
lowerneck -13.7471 0.859244 -0.626403
upperneck 39.4449 -1.17944 5.25619
head 16.5481 -0.0720673 2.17431
rclavicle -4.69132e-014 -3.02153e-014
rhumerus 38.5551 -43.0988 -23.5856
rradius 14.9274
rwrist 36.5417
rhand 21.2055 -4.24792
rfingers 7.12502
rthumb 45.6564 -27.4842
lclavicle -4.69132e-014 -3.02153e-014
lhumerus -22.1666 26.6316 17.9635
lradius 15.2702
lwrist -56.7003
lhand -1.83276 29.8284
lfingers 7.12502
lthumb 23.8338 58.3699
rfemur -0.758511 -7.87108 18.8173
rtibia 40.0854
rfoot 13.1534 -39.5098
rtoes 34.4214
lfemur -55.2399 6.97525 -1.14176
ltibia 38.2932
lfoot -2.99679 17.3746
ltoes 8.7152
904
root 5.99184 18.3388 -9.43377 58.5903 -37.3957 -25.2163
lowerback -17.6978 5.05551 2.18669
upperback -13.7118 6.03115 1.13919
thorax -4.83845 2.80561 0.791369
lowerneck -12.7667 0.811753 -1.14598
upperneck 40.0203 -1.21298 5.37981
head 16.6123 -0.176486 2.32386
rclavicle -3.27995e-014 2.54444e-014
rhumerus 39.1469 -40.4005 -23.3689
rradius 15.7187
rwrist 33.6993
rhand 22.179 -4.59571
rfingers 7.12502
rthumb 46.5593 -27.4536
lclavicle -3.27995e-014 2.54444e-014
lhumerus -23.3624 28.9274 18.714
lradius 14.8625
lwrist -57.9346
lhand -2.23734 29.3316
lfingers 7.12502
lthumb 23.4457 57.9231
rfemur -3.20887 -7.72295 17.633
rtibia 40.8637
rfoot 13.5145 -36.327
rtoes 29.3691
lfemur -55.5444 7.63556 -5.42415
ltibia 38.8334
lfoot 0.742945 15.8931
ltoes -8.10077
905
root 6.02363 18.2782 -9.43189 57.1286 -37.6293 -23.7436
lowerback -17.2612 4.82132 1.97221
upperback -13.4492 5.77502 0.949954
thorax -4.76148 2.6879 0.65282
lowerneck -11.8717 0.632799 -1.48707
upperneck 40.5208 -1.50849 5.51285
head 16.6778 -0.358255 2.40185
rclavicle -3.37934e-014 3.18055e-014
rhumerus 38.8109 -37.7902 -22.0015
rradius 16.6182
rwrist 30.1507
rhand 23.0191 -4.86417
rfingers 7.12502
rthumb 47.3365 -27.3807
lclavicle -3.37934e-014 3.18055e-014
lhumerus -24.0589 31.2127 19.8469
lradius 14.624
lwrist -59.1258
lhand -2.4069 29.0484
lfingers 7.12502
lthumb 23.2831 57.6606
rfemur -5.38449 -7.68273 18.1734
rtibia 41.5626
rfoot 12.0907 -33.6762
rtoes 26.3831
lfemur -56.0346 8.24489 -8.01038
ltibia 39.6324
lfoot 3.14351 13.6248
ltoes -19.5834
906
root 6.06279 18.2012 -9.43838 55.582 -37.6519 -22.3755
lowerback -16.611 4.69266 2.10209
upperback -13.18 5.62596 0.711908
thorax -4.75393 2.59805 0.274098
lowerneck -10.9615 0.481131 -1.35976
upperneck 40.9398 -1.70543 5.178
head 16.6841 -0.487147 2.19912
rclavicle 2.52457e-014 4.77083e-014
rhumerus 38.7322 -35.5975 -20.9529
rradius 17.5385
rwrist 26.9382
rhand 23.7874 -5.06431
rfingers 7.12502
rthumb 48.0456 -27.2558
lclavicle 2.52457e-014 4.77083e-014
lhumerus -24.5268 32.3329 21.4389
lradius 14.6099
lwrist -59.2727
lhand -2.53021 28.8905
lfingers 7.12502
lthumb 23.1648 57.5176
rfemur -7.57951 -7.43876 18.9404
rtibia 42.3119
rfoot 8.9942 -32.0311
rtoes 25.3153
lfemur -56.2861 8.36664 -10.1505
ltibia 40.5462
lfoot 3.67382 11.9397
ltoes -25.6407
